<?xml version="1.0" encoding="UTF-8" standalone="no"?>
<!DOCTYPE svg PUBLIC "-//W3C//DTD SVG 1.1//EN"
 "http://www.w3.org/Graphics/SVG/1.1/DTD/svg11.dtd">
<!-- Generated by graphviz version 8.1.0 (20230707.0739)
 -->
<!-- Pages: 1 -->
<svg width="3085pt" height="3054pt"
 viewBox="0.00 0.00 3085.00 3053.50" xmlns="http://www.w3.org/2000/svg" xmlns:xlink="http://www.w3.org/1999/xlink">
<g id="graph0" class="graph" transform="scale(1 1) rotate(0) translate(4 3049.5)">
<polygon fill="white" stroke="none" points="-4,4 -4,-3049.5 3081,-3049.5 3081,4 -4,4"/>
<g id="clust1" class="cluster">
<title>cluster_Ecto</title>
<g id="a_clust1"><a xlink:title="Ecto">
<path fill="lightgrey" stroke="blue" d="M20,-8C20,-8 3057,-8 3057,-8 3063,-8 3069,-14 3069,-20 3069,-20 3069,-3025.5 3069,-3025.5 3069,-3031.5 3063,-3037.5 3057,-3037.5 3057,-3037.5 20,-3037.5 20,-3037.5 14,-3037.5 8,-3031.5 8,-3025.5 8,-3025.5 8,-20 8,-20 8,-14 14,-8 20,-8"/>
<text text-anchor="middle" x="1538.5" y="-3020.2" font-family="Times,serif" font-size="14.00">Ecto</text>
</a>
</g>
</g>
<g id="clust2" class="cluster">
<title>cluster_Ecto.Association</title>
<g id="a_clust2"><a xlink:title="Ecto.Association">
<path fill="lightgrey" stroke="blue" d="M40,-1329C40,-1329 1264,-1329 1264,-1329 1270,-1329 1276,-1335 1276,-1341 1276,-1341 1276,-2699.25 1276,-2699.25 1276,-2705.25 1270,-2711.25 1264,-2711.25 1264,-2711.25 40,-2711.25 40,-2711.25 34,-2711.25 28,-2705.25 28,-2699.25 28,-2699.25 28,-1341 28,-1341 28,-1335 34,-1329 40,-1329"/>
<text text-anchor="middle" x="652" y="-2693.95" font-family="Times,serif" font-size="14.00">Association</text>
</a>
</g>
</g>
<g id="clust3" class="cluster">
<title>cluster_Ecto.Query</title>
<g id="a_clust3"><a xlink:title="Ecto.Query">
<path fill="lightgrey" stroke="blue" d="M1296,-16C1296,-16 3049,-16 3049,-16 3055,-16 3061,-22 3061,-28 3061,-28 3061,-1460.75 3061,-1460.75 3061,-1466.75 3055,-1472.75 3049,-1472.75 3049,-1472.75 1296,-1472.75 1296,-1472.75 1290,-1472.75 1284,-1466.75 1284,-1460.75 1284,-1460.75 1284,-28 1284,-28 1284,-22 1290,-16 1296,-16"/>
<text text-anchor="middle" x="2172.5" y="-1455.45" font-family="Times,serif" font-size="14.00">Query</text>
</a>
</g>
</g>
<g id="clust4" class="cluster">
<title>cluster_Ecto.Query.Builder</title>
<g id="a_clust4"><a xlink:title="Ecto.Query.Builder">
<path fill="lightgrey" stroke="blue" d="M1304,-676.5C1304,-676.5 3041,-676.5 3041,-676.5 3047,-676.5 3053,-682.5 3053,-688.5 3053,-688.5 3053,-1427.5 3053,-1427.5 3053,-1433.5 3047,-1439.5 3041,-1439.5 3041,-1439.5 1304,-1439.5 1304,-1439.5 1298,-1439.5 1292,-1433.5 1292,-1427.5 1292,-1427.5 1292,-688.5 1292,-688.5 1292,-682.5 1298,-676.5 1304,-676.5"/>
<text text-anchor="middle" x="2172.5" y="-1422.2" font-family="Times,serif" font-size="14.00">Builder</text>
</a>
</g>
</g>
<g id="clust5" class="cluster">
<title>cluster_Ecto.Query.Builder.Distinct</title>
<g id="a_clust5"><a xlink:title="Ecto.Query.Builder.Distinct">
<path fill="lightgrey" stroke="blue" d="M2890,-1002.75C2890,-1002.75 3033,-1002.75 3033,-1002.75 3039,-1002.75 3045,-1008.75 3045,-1014.75 3045,-1014.75 3045,-1068 3045,-1068 3045,-1074 3039,-1080 3033,-1080 3033,-1080 2890,-1080 2890,-1080 2884,-1080 2878,-1074 2878,-1068 2878,-1068 2878,-1014.75 2878,-1014.75 2878,-1008.75 2884,-1002.75 2890,-1002.75"/>
<text text-anchor="middle" x="2961.5" y="-1062.7" font-family="Times,serif" font-size="14.00">Distinct</text>
</a>
</g>
</g>
<g id="clust6" class="cluster">
<title>cluster_Ecto.Query.Builder.Filter</title>
<g id="a_clust6"><a xlink:title="Ecto.Query.Builder.Filter">
<path fill="lightgrey" stroke="blue" d="M1312,-1329C1312,-1329 1450,-1329 1450,-1329 1456,-1329 1462,-1335 1462,-1341 1462,-1341 1462,-1394.25 1462,-1394.25 1462,-1400.25 1456,-1406.25 1450,-1406.25 1450,-1406.25 1312,-1406.25 1312,-1406.25 1306,-1406.25 1300,-1400.25 1300,-1394.25 1300,-1394.25 1300,-1341 1300,-1341 1300,-1335 1306,-1329 1312,-1329"/>
<text text-anchor="middle" x="1381" y="-1388.95" font-family="Times,serif" font-size="14.00">Filter</text>
</a>
</g>
</g>
<g id="clust7" class="cluster">
<title>cluster_Ecto.Query.Builder.From</title>
<g id="a_clust7"><a xlink:title="Ecto.Query.Builder.From">
<path fill="lightgrey" stroke="blue" d="M1863,-1002.75C1863,-1002.75 2746,-1002.75 2746,-1002.75 2752,-1002.75 2758,-1008.75 2758,-1014.75 2758,-1014.75 2758,-1394.25 2758,-1394.25 2758,-1400.25 2752,-1406.25 2746,-1406.25 2746,-1406.25 1863,-1406.25 1863,-1406.25 1857,-1406.25 1851,-1400.25 1851,-1394.25 1851,-1394.25 1851,-1014.75 1851,-1014.75 1851,-1008.75 1857,-1002.75 1863,-1002.75"/>
<text text-anchor="middle" x="2304.5" y="-1388.95" font-family="Times,serif" font-size="14.00">From</text>
</a>
</g>
</g>
<g id="clust8" class="cluster">
<title>cluster_Ecto.Query.CompileError</title>
<g id="a_clust8"><a xlink:title="Ecto.Query.CompileError">
<path fill="lightgrey" stroke="blue" d="M2604,-24C2604,-24 2793,-24 2793,-24 2799,-24 2805,-30 2805,-36 2805,-36 2805,-415.5 2805,-415.5 2805,-421.5 2799,-427.5 2793,-427.5 2793,-427.5 2604,-427.5 2604,-427.5 2598,-427.5 2592,-421.5 2592,-415.5 2592,-415.5 2592,-36 2592,-36 2592,-30 2598,-24 2604,-24"/>
<text text-anchor="middle" x="2698.5" y="-410.2" font-family="Times,serif" font-size="14.00">CompileError</text>
</a>
</g>
</g>
<g id="clust9" class="cluster">
<title>cluster_Ecto.Queryable</title>
<g id="a_clust9"><a xlink:title="Ecto.Queryable">
<path fill="lightgrey" stroke="blue" d="M1144,-676.5C1144,-676.5 1264,-676.5 1264,-676.5 1270,-676.5 1276,-682.5 1276,-688.5 1276,-688.5 1276,-741.75 1276,-741.75 1276,-747.75 1270,-753.75 1264,-753.75 1264,-753.75 1144,-753.75 1144,-753.75 1138,-753.75 1132,-747.75 1132,-741.75 1132,-741.75 1132,-688.5 1132,-688.5 1132,-682.5 1138,-676.5 1144,-676.5"/>
<text text-anchor="middle" x="1204" y="-736.45" font-family="Times,serif" font-size="14.00">Queryable</text>
</a>
</g>
</g>
<!-- Ecto.Association.expand_where/5 -->
<g id="node1" class="node">
<title>Ecto.Association.expand_where/5</title>
<ellipse fill="white" stroke="white" cx="1139" cy="-1681.25" rx="92.77" ry="18"/>
<text text-anchor="middle" x="1139" y="-1676.58" font-family="Times,serif" font-size="14.00">expand_where/5</text>
</g>
<!-- Ecto.Association.to_field/2 -->
<g id="node2" class="node">
<title>Ecto.Association.to_field/2</title>
<ellipse fill="white" stroke="white" cx="1139" cy="-1355" rx="57" ry="18"/>
<text text-anchor="middle" x="1139" y="-1350.33" font-family="Times,serif" font-size="14.00">to_field/2</text>
</g>
<!-- Ecto.Association.expand_where/5&#45;&gt;Ecto.Association.to_field/2 -->
<g id="edge34" class="edge">
<title>Ecto.Association.expand_where/5&#45;&gt;Ecto.Association.to_field/2</title>
<path fill="none" stroke="black" d="M1139,-1662.82C1139,-1609.58 1139,-1448.81 1139,-1383.76"/>
<polygon fill="black" stroke="black" points="1142.5,-1384.13 1139,-1374.13 1135.5,-1384.13 1142.5,-1384.13"/>
<text text-anchor="middle" x="1156.62" y="-1518.3" font-family="Times,serif" font-size="1.00">Ecto.Association.expand_where/5 &#45;&gt; Ecto.Association.to_field/2</text>
</g>
<!-- Ecto.Query.Builder.fragment_pieces/2 -->
<g id="node19" class="node">
<title>Ecto.Query.Builder.fragment_pieces/2</title>
<ellipse fill="white" stroke="white" cx="1576" cy="-1355" rx="103.29" ry="18"/>
<text text-anchor="middle" x="1576" y="-1350.33" font-family="Times,serif" font-size="14.00">fragment_pieces/2</text>
</g>
<!-- Ecto.Association.expand_where/5&#45;&gt;Ecto.Query.Builder.fragment_pieces/2 -->
<g id="edge35" class="edge">
<title>Ecto.Association.expand_where/5&#45;&gt;Ecto.Query.Builder.fragment_pieces/2</title>
<path fill="none" stroke="black" d="M1170.02,-1664C1230.2,-1631.75 1365.68,-1555.59 1466,-1472.75 1500.19,-1444.51 1534.4,-1406.24 1555.38,-1381.33"/>
<polygon fill="black" stroke="black" points="1558.52,-1384.04 1562.23,-1374.12 1553.14,-1379.56 1558.52,-1384.04"/>
<text text-anchor="middle" x="1427.25" y="-1518.3" font-family="Times,serif" font-size="1.00">Ecto.Association.expand_where/5 &#45;&gt; Ecto.Query.Builder.fragment_pieces/2</text>
</g>
<!-- Ecto.Association.resolve_through_tables/3 -->
<g id="node3" class="node">
<title>Ecto.Association.resolve_through_tables/3</title>
<ellipse fill="white" stroke="white" cx="173" cy="-2007.5" rx="136.96" ry="18"/>
<text text-anchor="middle" x="173" y="-2002.83" font-family="Times,serif" font-size="14.00">resolve_through_tables/3</text>
</g>
<!-- Ecto.Association.resolve_through_tables/3&#45;&gt;Ecto.Association.resolve_through_tables/3 -->
<g id="edge24" class="edge">
<title>Ecto.Association.resolve_through_tables/3&#45;&gt;Ecto.Association.resolve_through_tables/3</title>
<path fill="none" stroke="black" d="M204.57,-2025.38C258.11,-2046.99 327.96,-2041.03 327.96,-2007.5 327.96,-1976.06 266.57,-1968.86 214.78,-1985.89"/>
<polygon fill="black" stroke="black" points="213.76,-1982.9 205.57,-1989.62 216.16,-1989.48 213.76,-1982.9"/>
<text text-anchor="middle" x="353.84" y="-2007.67" font-family="Times,serif" font-size="1.00">Ecto.Association.resolve_through_tables/3 &#45;&gt; Ecto.Association.resolve_through_tables/3</text>
</g>
<!-- Ecto.Association.association_from_schema!/2 -->
<g id="node4" class="node">
<title>Ecto.Association.association_from_schema!/2</title>
<ellipse fill="white" stroke="white" cx="188" cy="-1681.25" rx="151.7" ry="18"/>
<text text-anchor="middle" x="188" y="-1676.58" font-family="Times,serif" font-size="14.00">association_from_schema!/2</text>
</g>
<!-- Ecto.Association.resolve_through_tables/3&#45;&gt;Ecto.Association.association_from_schema!/2 -->
<g id="edge23" class="edge">
<title>Ecto.Association.resolve_through_tables/3&#45;&gt;Ecto.Association.association_from_schema!/2</title>
<path fill="none" stroke="black" d="M173.81,-1989.07C176.27,-1935.83 183.71,-1775.06 186.72,-1710.01"/>
<polygon fill="black" stroke="black" points="190.24,-1710.53 187.21,-1700.38 183.25,-1710.2 190.24,-1710.53"/>
<text text-anchor="middle" x="206.25" y="-1844.55" font-family="Times,serif" font-size="1.00">Ecto.Association.resolve_through_tables/3 &#45;&gt; Ecto.Association.association_from_schema!/2</text>
</g>
<!-- Ecto.Association.flatten_through_chain/3 -->
<g id="node5" class="node">
<title>Ecto.Association.flatten_through_chain/3</title>
<ellipse fill="white" stroke="white" cx="527" cy="-2007.5" rx="129.6" ry="18"/>
<text text-anchor="middle" x="527" y="-2002.83" font-family="Times,serif" font-size="14.00">flatten_through_chain/3</text>
</g>
<!-- Ecto.Association.flatten_through_chain/3&#45;&gt;Ecto.Association.association_from_schema!/2 -->
<g id="edge21" class="edge">
<title>Ecto.Association.flatten_through_chain/3&#45;&gt;Ecto.Association.association_from_schema!/2</title>
<path fill="none" stroke="black" d="M509.25,-1989.52C453.2,-1935.91 279.81,-1770.07 213.84,-1706.97"/>
<polygon fill="black" stroke="black" points="216.63,-1704.83 206.98,-1700.45 211.79,-1709.89 216.63,-1704.83"/>
<text text-anchor="middle" x="382.88" y="-1844.55" font-family="Times,serif" font-size="1.00">Ecto.Association.flatten_through_chain/3 &#45;&gt; Ecto.Association.association_from_schema!/2</text>
</g>
<!-- Ecto.Association.flatten_through_chain/3&#45;&gt;Ecto.Association.flatten_through_chain/3 -->
<g id="edge22" class="edge">
<title>Ecto.Association.flatten_through_chain/3&#45;&gt;Ecto.Association.flatten_through_chain/3</title>
<path fill="none" stroke="black" d="M557.07,-2025.38C608.07,-2046.99 674.6,-2041.03 674.6,-2007.5 674.6,-1976.13 616.37,-1968.89 567.1,-1985.78"/>
<polygon fill="black" stroke="black" points="566.16,-1982.78 558.07,-1989.62 568.66,-1989.32 566.16,-1982.78"/>
<text text-anchor="middle" x="699.72" y="-2007.67" font-family="Times,serif" font-size="1.00">Ecto.Association.flatten_through_chain/3 &#45;&gt; Ecto.Association.flatten_through_chain/3</text>
</g>
<!-- Ecto.Association.combine_joins_query/3 -->
<g id="node6" class="node">
<title>Ecto.Association.combine_joins_query/3</title>
<ellipse fill="white" stroke="white" cx="868" cy="-2007.5" rx="124.86" ry="18"/>
<text text-anchor="middle" x="868" y="-2002.83" font-family="Times,serif" font-size="14.00">combine_joins_query/3</text>
</g>
<!-- Ecto.Association.combine_joins_query/3&#45;&gt;Ecto.Association.expand_where/5 -->
<g id="edge20" class="edge">
<title>Ecto.Association.combine_joins_query/3&#45;&gt;Ecto.Association.expand_where/5</title>
<path fill="none" stroke="black" d="M882.19,-1989.52C926.81,-1936.13 1064.48,-1771.42 1117.69,-1707.74"/>
<polygon fill="black" stroke="black" points="1120.9,-1710.37 1124.62,-1700.45 1115.53,-1705.88 1120.9,-1710.37"/>
<text text-anchor="middle" x="1024.38" y="-1844.55" font-family="Times,serif" font-size="1.00">Ecto.Association.combine_joins_query/3 &#45;&gt; Ecto.Association.expand_where/5</text>
</g>
<!-- Ecto.Association.combine_assoc_query/2 -->
<g id="node7" class="node">
<title>Ecto.Association.combine_assoc_query/2</title>
<ellipse fill="white" stroke="white" cx="1139" cy="-2007.5" rx="128.55" ry="18"/>
<text text-anchor="middle" x="1139" y="-2002.83" font-family="Times,serif" font-size="14.00">combine_assoc_query/2</text>
</g>
<!-- Ecto.Association.combine_assoc_query/2&#45;&gt;Ecto.Association.expand_where/5 -->
<g id="edge19" class="edge">
<title>Ecto.Association.combine_assoc_query/2&#45;&gt;Ecto.Association.expand_where/5</title>
<path fill="none" stroke="black" d="M1139,-1989.07C1139,-1935.83 1139,-1775.06 1139,-1710.01"/>
<polygon fill="black" stroke="black" points="1142.5,-1710.38 1139,-1700.38 1135.5,-1710.38 1142.5,-1710.38"/>
<text text-anchor="middle" x="1161.12" y="-1844.55" font-family="Times,serif" font-size="1.00">Ecto.Association.combine_assoc_query/2 &#45;&gt; Ecto.Association.expand_where/5</text>
</g>
<!-- Ecto.Association.chain_through/4 -->
<g id="node8" class="node">
<title>Ecto.Association.chain_through/4</title>
<ellipse fill="white" stroke="white" cx="1169" cy="-2333.75" rx="92.24" ry="18"/>
<text text-anchor="middle" x="1169" y="-2329.07" font-family="Times,serif" font-size="14.00">chain_through/4</text>
</g>
<!-- Ecto.Association.chain_through/4&#45;&gt;Ecto.Association.resolve_through_tables/3 -->
<g id="edge8" class="edge">
<title>Ecto.Association.chain_through/4&#45;&gt;Ecto.Association.resolve_through_tables/3</title>
<path fill="none" stroke="black" d="M1122.96,-2317.76C960.64,-2264.92 415.05,-2087.3 232.83,-2027.98"/>
<polygon fill="black" stroke="black" points="234.22,-2024.42 223.63,-2024.66 232.05,-2031.08 234.22,-2024.42"/>
<text text-anchor="middle" x="693.88" y="-2170.8" font-family="Times,serif" font-size="1.00">Ecto.Association.chain_through/4 &#45;&gt; Ecto.Association.resolve_through_tables/3</text>
</g>
<!-- Ecto.Association.chain_through/4&#45;&gt;Ecto.Association.flatten_through_chain/3 -->
<g id="edge7" class="edge">
<title>Ecto.Association.chain_through/4&#45;&gt;Ecto.Association.flatten_through_chain/3</title>
<path fill="none" stroke="black" d="M1136.72,-2316.45C1030.25,-2262.67 690.12,-2090.89 569.73,-2030.08"/>
<polygon fill="black" stroke="black" points="571.61,-2026.61 561.11,-2025.22 568.46,-2032.85 571.61,-2026.61"/>
<text text-anchor="middle" x="870.5" y="-2170.8" font-family="Times,serif" font-size="1.00">Ecto.Association.chain_through/4 &#45;&gt; Ecto.Association.flatten_through_chain/3</text>
</g>
<!-- Ecto.Association.chain_through/4&#45;&gt;Ecto.Association.combine_joins_query/3 -->
<g id="edge11" class="edge">
<title>Ecto.Association.chain_through/4&#45;&gt;Ecto.Association.combine_joins_query/3</title>
<path fill="none" stroke="black" d="M1153.24,-2315.77C1103.58,-2262.27 950.15,-2096.99 891.3,-2033.6"/>
<polygon fill="black" stroke="black" points="894.34,-2031.65 884.97,-2026.7 889.2,-2036.41 894.34,-2031.65"/>
<text text-anchor="middle" x="1039.38" y="-2170.8" font-family="Times,serif" font-size="1.00">Ecto.Association.chain_through/4 &#45;&gt; Ecto.Association.combine_joins_query/3</text>
</g>
<!-- Ecto.Association.chain_through/4&#45;&gt;Ecto.Association.combine_assoc_query/2 -->
<g id="edge15" class="edge">
<title>Ecto.Association.chain_through/4&#45;&gt;Ecto.Association.combine_assoc_query/2</title>
<path fill="none" stroke="black" d="M1167.39,-2315.32C1162.46,-2262.08 1147.59,-2101.31 1141.57,-2036.26"/>
<polygon fill="black" stroke="black" points="1144.99,-2036.26 1140.58,-2026.63 1138.02,-2036.91 1144.99,-2036.26"/>
<text text-anchor="middle" x="1176.12" y="-2170.8" font-family="Times,serif" font-size="1.00">Ecto.Association.chain_through/4 &#45;&gt; Ecto.Association.combine_assoc_query/2</text>
</g>
<!-- Ecto.Query.Builder.Filter.apply/3 -->
<g id="node11" class="node">
<title>Ecto.Query.Builder.Filter.apply/3</title>
<ellipse fill="white" stroke="white" cx="1356" cy="-1355" rx="48.05" ry="18"/>
<text text-anchor="middle" x="1356" y="-1350.33" font-family="Times,serif" font-size="14.00">apply/3</text>
</g>
<!-- Ecto.Association.chain_through/4&#45;&gt;Ecto.Query.Builder.Filter.apply/3 -->
<g id="edge12" class="edge">
<title>Ecto.Association.chain_through/4&#45;&gt;Ecto.Query.Builder.Filter.apply/3</title>
<path fill="none" stroke="black" d="M1176.6,-2315.49C1196.53,-2269.4 1250.64,-2139.24 1277,-2025.5 1333.58,-1781.37 1350.78,-1477.27 1354.89,-1384.3"/>
<polygon fill="black" stroke="black" points="1358.43,-1384.45 1355.36,-1374.31 1351.44,-1384.15 1358.43,-1384.45"/>
<text text-anchor="middle" x="1329" y="-1844.55" font-family="Times,serif" font-size="1.00">Ecto.Association.chain_through/4 &#45;&gt; Ecto.Query.Builder.Filter.apply/3</text>
</g>
<!-- Ecto.Query.Builder.From.apply/5 -->
<g id="node15" class="node">
<title>Ecto.Query.Builder.From.apply/5</title>
<ellipse fill="white" stroke="white" cx="2149" cy="-1355" rx="48.05" ry="18"/>
<text text-anchor="middle" x="2149" y="-1350.33" font-family="Times,serif" font-size="14.00">apply/5</text>
</g>
<!-- Ecto.Association.chain_through/4&#45;&gt;Ecto.Query.Builder.From.apply/5 -->
<g id="edge9" class="edge">
<title>Ecto.Association.chain_through/4&#45;&gt;Ecto.Query.Builder.From.apply/5</title>
<path fill="none" stroke="black" d="M1193.49,-2315.92C1309.37,-2235.21 1809.03,-1875.09 2097,-1472.75 2116.91,-1444.93 2131.7,-1408.27 2140.32,-1383.51"/>
<polygon fill="black" stroke="black" points="2143.86,-1384.96 2143.73,-1374.37 2137.22,-1382.73 2143.86,-1384.96"/>
<text text-anchor="middle" x="1786.38" y="-1844.55" font-family="Times,serif" font-size="1.00">Ecto.Association.chain_through/4 &#45;&gt; Ecto.Query.Builder.From.apply/5</text>
</g>
<!-- Ecto.Query.Builder.count_binds/1 -->
<g id="node21" class="node">
<title>Ecto.Query.Builder.count_binds/1</title>
<ellipse fill="white" stroke="white" cx="2836" cy="-702.5" rx="80.67" ry="18"/>
<text text-anchor="middle" x="2836" y="-697.83" font-family="Times,serif" font-size="14.00">count_binds/1</text>
</g>
<!-- Ecto.Association.chain_through/4&#45;&gt;Ecto.Query.Builder.count_binds/1 -->
<g id="edge10" class="edge">
<title>Ecto.Association.chain_through/4&#45;&gt;Ecto.Query.Builder.count_binds/1</title>
<path fill="none" stroke="black" d="M1260.82,-2331.55C1589.13,-2325.13 2696.41,-2284.32 2906,-2025.5 3049.56,-1848.22 2941.39,-1742.51 2975.75,-1517 3010.52,-1288.77 3119.27,-1222.66 3049,-1002.75 3011.66,-885.9 2910.16,-775.68 2862.01,-728.11"/>
<polygon fill="black" stroke="black" points="2864.82,-725.98 2855.22,-721.5 2859.92,-730.99 2864.82,-725.98"/>
<text text-anchor="middle" x="2994.12" y="-1518.3" font-family="Times,serif" font-size="1.00">Ecto.Association.chain_through/4 &#45;&gt; Ecto.Query.Builder.count_binds/1</text>
</g>
<!-- Ecto.Query.Builder.atom!/2 -->
<g id="node22" class="node">
<title>Ecto.Query.Builder.atom!/2</title>
<ellipse fill="white" stroke="white" cx="2818" cy="-1028.75" rx="50.16" ry="18"/>
<text text-anchor="middle" x="2818" y="-1024.08" font-family="Times,serif" font-size="14.00">atom!/2</text>
</g>
<!-- Ecto.Association.chain_through/4&#45;&gt;Ecto.Query.Builder.atom!/2 -->
<g id="edge13" class="edge">
<title>Ecto.Association.chain_through/4&#45;&gt;Ecto.Query.Builder.atom!/2</title>
<path fill="none" stroke="black" d="M1253.22,-2326.06C1600.48,-2297.36 2903,-2178.38 2903,-2008.5 2903,-2008.5 2903,-2008.5 2903,-1354 2903,-1240.52 2853.68,-1111.78 2830.18,-1056.88"/>
<polygon fill="black" stroke="black" points="2833.04,-1055.68 2825.84,-1047.91 2826.62,-1058.47 2833.04,-1055.68"/>
<text text-anchor="middle" x="2920.25" y="-1681.42" font-family="Times,serif" font-size="1.00">Ecto.Association.chain_through/4 &#45;&gt; Ecto.Query.Builder.atom!/2</text>
</g>
<!-- Ecto.Query.Builder.not_nil!/1 -->
<g id="node23" class="node">
<title>Ecto.Query.Builder.not_nil!/1</title>
<ellipse fill="white" stroke="white" cx="2825" cy="-1355" rx="58.57" ry="18"/>
<text text-anchor="middle" x="2825" y="-1350.33" font-family="Times,serif" font-size="14.00">not_nil!/1</text>
</g>
<!-- Ecto.Association.chain_through/4&#45;&gt;Ecto.Query.Builder.not_nil!/1 -->
<g id="edge14" class="edge">
<title>Ecto.Association.chain_through/4&#45;&gt;Ecto.Query.Builder.not_nil!/1</title>
<path fill="none" stroke="black" d="M1217.59,-2318.05C1427.35,-2252.46 2267.01,-1967.83 2762,-1472.75 2787.65,-1447.1 2805.58,-1408.82 2815.59,-1383.16"/>
<polygon fill="black" stroke="black" points="2819.16,-1384.6 2819.39,-1374.01 2812.6,-1382.15 2819.16,-1384.6"/>
<text text-anchor="middle" x="2294.62" y="-1844.55" font-family="Times,serif" font-size="1.00">Ecto.Association.chain_through/4 &#45;&gt; Ecto.Query.Builder.not_nil!/1</text>
</g>
<!-- Ecto.Association.filter_through_chain/3 -->
<g id="node9" class="node">
<title>Ecto.Association.filter_through_chain/3</title>
<ellipse fill="white" stroke="white" cx="1147" cy="-2660" rx="121.18" ry="18"/>
<text text-anchor="middle" x="1147" y="-2655.32" font-family="Times,serif" font-size="14.00">filter_through_chain/3</text>
</g>
<!-- Ecto.Association.filter_through_chain/3&#45;&gt;Ecto.Association.chain_through/4 -->
<g id="edge5" class="edge">
<title>Ecto.Association.filter_through_chain/3&#45;&gt;Ecto.Association.chain_through/4</title>
<path fill="none" stroke="black" d="M1148.18,-2641.57C1151.79,-2588.33 1162.7,-2427.56 1167.12,-2362.51"/>
<polygon fill="black" stroke="black" points="1170.65,-2363.09 1167.84,-2352.88 1163.67,-2362.62 1170.65,-2363.09"/>
<text text-anchor="middle" x="1179.75" y="-2497.05" font-family="Times,serif" font-size="1.00">Ecto.Association.filter_through_chain/3 &#45;&gt; Ecto.Association.chain_through/4</text>
</g>
<!-- Ecto.Query.Builder.Distinct.apply/2 -->
<g id="node10" class="node">
<title>Ecto.Query.Builder.Distinct.apply/2</title>
<ellipse fill="white" stroke="white" cx="2934" cy="-1028.75" rx="48.05" ry="18"/>
<text text-anchor="middle" x="2934" y="-1024.08" font-family="Times,serif" font-size="14.00">apply/2</text>
</g>
<!-- Ecto.Association.filter_through_chain/3&#45;&gt;Ecto.Query.Builder.Distinct.apply/2 -->
<g id="edge6" class="edge">
<title>Ecto.Association.filter_through_chain/3&#45;&gt;Ecto.Query.Builder.Distinct.apply/2</title>
<path fill="none" stroke="black" d="M1231.07,-2646.7C1595.33,-2593.12 3019,-2380.77 3019,-2334.75 3019,-2334.75 3019,-2334.75 3019,-1354 3019,-1281.41 3031.67,-1261.16 3014,-1190.75 3001.25,-1139.94 2970.83,-1086.55 2951.39,-1055.81"/>
<polygon fill="black" stroke="black" points="2953.86,-1054.17 2945.5,-1047.65 2947.97,-1057.95 2953.86,-1054.17"/>
<text text-anchor="middle" x="3040" y="-1844.55" font-family="Times,serif" font-size="1.00">Ecto.Association.filter_through_chain/3 &#45;&gt; Ecto.Query.Builder.Distinct.apply/2</text>
</g>
<!-- Ecto.Query.Builder.Distinct.apply/2&#45;&gt;Ecto.Query.Builder.Distinct.apply/2 -->
<g id="edge17" class="edge">
<title>Ecto.Query.Builder.Distinct.apply/2&#45;&gt;Ecto.Query.Builder.Distinct.apply/2</title>
<path fill="none" stroke="black" d="M2947.29,-1046.48C2970.14,-1068.27 3000.05,-1062.36 3000.05,-1028.75 3000.05,-999.21 2976.94,-991.07 2955.84,-1004.33"/>
<polygon fill="black" stroke="black" points="2954,-1002.1 2948.29,-1011.02 2958.32,-1007.61 2954,-1002.1"/>
<text text-anchor="middle" x="3018.43" y="-1028.92" font-family="Times,serif" font-size="1.00">Ecto.Query.Builder.Distinct.apply/2 &#45;&gt; Ecto.Query.Builder.Distinct.apply/2</text>
</g>
<!-- Ecto.Query.Builder.error!/1 -->
<g id="node20" class="node">
<title>Ecto.Query.Builder.error!/1</title>
<ellipse fill="white" stroke="white" cx="2669" cy="-702.5" rx="50.68" ry="18"/>
<text text-anchor="middle" x="2669" y="-697.83" font-family="Times,serif" font-size="14.00">error!/1</text>
</g>
<!-- Ecto.Query.Builder.Distinct.apply/2&#45;&gt;Ecto.Query.Builder.error!/1 -->
<g id="edge16" class="edge">
<title>Ecto.Query.Builder.Distinct.apply/2&#45;&gt;Ecto.Query.Builder.error!/1</title>
<path fill="none" stroke="black" d="M2923.56,-1010.94C2904.51,-980.66 2862.23,-915.38 2821,-864.5 2779.23,-812.96 2724.7,-757.74 2693.6,-727.23"/>
<polygon fill="black" stroke="black" points="2696.45,-725.14 2686.85,-720.66 2691.56,-730.15 2696.45,-725.14"/>
<text text-anchor="middle" x="2837.88" y="-865.8" font-family="Times,serif" font-size="1.00">Ecto.Query.Builder.Distinct.apply/2 &#45;&gt; Ecto.Query.Builder.error!/1</text>
</g>
<!-- Ecto.Queryable.to_query/1 -->
<g id="node26" class="node">
<title>Ecto.Queryable.to_query/1</title>
<ellipse fill="white" stroke="white" cx="1204" cy="-702.5" rx="64.36" ry="18"/>
<text text-anchor="middle" x="1204" y="-697.83" font-family="Times,serif" font-size="14.00">to_query/1</text>
</g>
<!-- Ecto.Query.Builder.Distinct.apply/2&#45;&gt;Ecto.Queryable.to_query/1 -->
<g id="edge18" class="edge">
<title>Ecto.Query.Builder.Distinct.apply/2&#45;&gt;Ecto.Queryable.to_query/1</title>
<path fill="none" stroke="black" d="M2907.93,-1013.23C2899.83,-1009.27 2890.74,-1005.36 2882,-1002.75 2440.57,-871.08 2308.95,-942.07 1854.5,-866.75 1601.22,-824.77 1527.55,-846.11 1288,-753.75 1269.62,-746.66 1250.66,-735.69 1235.41,-725.8"/>
<polygon fill="black" stroke="black" points="1237.7,-722.46 1227.44,-719.83 1233.82,-728.28 1237.7,-722.46"/>
<text text-anchor="middle" x="1871.25" y="-865.8" font-family="Times,serif" font-size="1.00">Ecto.Query.Builder.Distinct.apply/2 &#45;&gt; Ecto.Queryable.to_query/1</text>
</g>
<!-- Ecto.Query.Builder.Filter.apply/3&#45;&gt;Ecto.Query.Builder.Filter.apply/3 -->
<g id="edge27" class="edge">
<title>Ecto.Query.Builder.Filter.apply/3&#45;&gt;Ecto.Query.Builder.Filter.apply/3</title>
<path fill="none" stroke="black" d="M1369.29,-1372.73C1392.14,-1394.52 1422.05,-1388.61 1422.05,-1355 1422.05,-1325.46 1398.94,-1317.32 1377.84,-1330.58"/>
<polygon fill="black" stroke="black" points="1376,-1328.35 1370.29,-1337.27 1380.32,-1333.86 1376,-1328.35"/>
<text text-anchor="middle" x="1438.18" y="-1355.17" font-family="Times,serif" font-size="1.00">Ecto.Query.Builder.Filter.apply/3 &#45;&gt; Ecto.Query.Builder.Filter.apply/3</text>
</g>
<!-- Ecto.Query.Builder.Filter.apply/3&#45;&gt;Ecto.Queryable.to_query/1 -->
<g id="edge28" class="edge">
<title>Ecto.Query.Builder.Filter.apply/3&#45;&gt;Ecto.Queryable.to_query/1</title>
<path fill="none" stroke="black" d="M1340.8,-1337.44C1305.18,-1297.18 1217.56,-1189.42 1194.75,-1080 1168.06,-951.95 1188.73,-794.12 1199.04,-731.24"/>
<polygon fill="black" stroke="black" points="1202.62,-732.08 1200.83,-721.64 1195.72,-730.91 1202.62,-732.08"/>
<text text-anchor="middle" x="1210.12" y="-1028.92" font-family="Times,serif" font-size="1.00">Ecto.Query.Builder.Filter.apply/3 &#45;&gt; Ecto.Queryable.to_query/1</text>
</g>
<!-- Ecto.Query.Builder.From.maybe_apply_prefix/2 -->
<g id="node12" class="node">
<title>Ecto.Query.Builder.From.maybe_apply_prefix/2</title>
<ellipse fill="white" stroke="white" cx="2229" cy="-1028.75" rx="119.6" ry="18"/>
<text text-anchor="middle" x="2229" y="-1024.08" font-family="Times,serif" font-size="14.00">maybe_apply_prefix/2</text>
</g>
<!-- Ecto.Query.Builder.From.maybe_apply_prefix/2&#45;&gt;Ecto.Query.Builder.error!/1 -->
<g id="edge39" class="edge">
<title>Ecto.Query.Builder.From.maybe_apply_prefix/2&#45;&gt;Ecto.Query.Builder.error!/1</title>
<path fill="none" stroke="black" d="M2252.04,-1010.77C2325.83,-956.39 2556.38,-786.5 2639.09,-725.54"/>
<polygon fill="black" stroke="black" points="2640.78,-727.91 2646.75,-719.16 2636.62,-722.27 2640.78,-727.91"/>
<text text-anchor="middle" x="2469.62" y="-865.8" font-family="Times,serif" font-size="1.00">Ecto.Query.Builder.From.maybe_apply_prefix/2 &#45;&gt; Ecto.Query.Builder.error!/1</text>
</g>
<!-- Ecto.Query.Builder.From.maybe_apply_as/2 -->
<g id="node13" class="node">
<title>Ecto.Query.Builder.From.maybe_apply_as/2</title>
<ellipse fill="white" stroke="white" cx="2468" cy="-1028.75" rx="101.71" ry="18"/>
<text text-anchor="middle" x="2468" y="-1024.08" font-family="Times,serif" font-size="14.00">maybe_apply_as/2</text>
</g>
<!-- Ecto.Query.Builder.From.maybe_apply_as/2&#45;&gt;Ecto.Query.Builder.error!/1 -->
<g id="edge38" class="edge">
<title>Ecto.Query.Builder.From.maybe_apply_as/2&#45;&gt;Ecto.Query.Builder.error!/1</title>
<path fill="none" stroke="black" d="M2478.52,-1010.77C2511.56,-957.48 2613.37,-793.25 2652.99,-729.33"/>
<polygon fill="black" stroke="black" points="2656.29,-731.65 2658.58,-721.31 2650.34,-727.96 2656.29,-731.65"/>
<text text-anchor="middle" x="2587.5" y="-865.8" font-family="Times,serif" font-size="1.00">Ecto.Query.Builder.From.maybe_apply_as/2 &#45;&gt; Ecto.Query.Builder.error!/1</text>
</g>
<!-- Ecto.Query.Builder.From.check_binds/2 -->
<g id="node14" class="node">
<title>Ecto.Query.Builder.From.check_binds/2</title>
<ellipse fill="white" stroke="white" cx="2669" cy="-1028.75" rx="81.2" ry="18"/>
<text text-anchor="middle" x="2669" y="-1024.08" font-family="Times,serif" font-size="14.00">check_binds/2</text>
</g>
<!-- Ecto.Query.Builder.From.check_binds/2&#45;&gt;Ecto.Query.Builder.error!/1 -->
<g id="edge37" class="edge">
<title>Ecto.Query.Builder.From.check_binds/2&#45;&gt;Ecto.Query.Builder.error!/1</title>
<path fill="none" stroke="black" d="M2669,-1010.32C2669,-957.08 2669,-796.31 2669,-731.26"/>
<polygon fill="black" stroke="black" points="2672.5,-731.63 2669,-721.63 2665.5,-731.63 2672.5,-731.63"/>
<text text-anchor="middle" x="2687.38" y="-865.8" font-family="Times,serif" font-size="1.00">Ecto.Query.Builder.From.check_binds/2 &#45;&gt; Ecto.Query.Builder.error!/1</text>
</g>
<!-- Ecto.Query.Builder.From.check_binds/2&#45;&gt;Ecto.Query.Builder.count_binds/1 -->
<g id="edge36" class="edge">
<title>Ecto.Query.Builder.From.check_binds/2&#45;&gt;Ecto.Query.Builder.count_binds/1</title>
<path fill="none" stroke="black" d="M2682.46,-1010.75C2704.52,-982.28 2748.71,-922.6 2777,-866.75 2800.12,-821.1 2818.53,-764.18 2828.3,-731.03"/>
<polygon fill="black" stroke="black" points="2831.86,-732.33 2831.28,-721.75 2825.14,-730.38 2831.86,-732.33"/>
<text text-anchor="middle" x="2796.88" y="-865.8" font-family="Times,serif" font-size="1.00">Ecto.Query.Builder.From.check_binds/2 &#45;&gt; Ecto.Query.Builder.count_binds/1</text>
</g>
<!-- Ecto.Query.Builder.From.apply/5&#45;&gt;Ecto.Query.Builder.From.maybe_apply_prefix/2 -->
<g id="edge30" class="edge">
<title>Ecto.Query.Builder.From.apply/5&#45;&gt;Ecto.Query.Builder.From.maybe_apply_prefix/2</title>
<path fill="none" stroke="black" d="M2153.19,-1337.02C2166.23,-1284.18 2206.17,-1122.27 2222.22,-1057.23"/>
<polygon fill="black" stroke="black" points="2225.76,-1058.5 2224.76,-1047.95 2218.96,-1056.82 2225.76,-1058.5"/>
<text text-anchor="middle" x="2210.38" y="-1192.05" font-family="Times,serif" font-size="1.00">Ecto.Query.Builder.From.apply/5 &#45;&gt; Ecto.Query.Builder.From.maybe_apply_prefix/2</text>
</g>
<!-- Ecto.Query.Builder.From.apply/5&#45;&gt;Ecto.Query.Builder.From.maybe_apply_as/2 -->
<g id="edge31" class="edge">
<title>Ecto.Query.Builder.From.apply/5&#45;&gt;Ecto.Query.Builder.From.maybe_apply_as/2</title>
<path fill="none" stroke="black" d="M2164.82,-1337.92C2216.66,-1285.23 2381.66,-1117.51 2443.91,-1054.23"/>
<polygon fill="black" stroke="black" points="2445.8,-1057.29 2450.32,-1047.7 2440.81,-1052.38 2445.8,-1057.29"/>
<text text-anchor="middle" x="2328.25" y="-1192.05" font-family="Times,serif" font-size="1.00">Ecto.Query.Builder.From.apply/5 &#45;&gt; Ecto.Query.Builder.From.maybe_apply_as/2</text>
</g>
<!-- Ecto.Query.Builder.From.apply/5&#45;&gt;Ecto.Query.Builder.From.check_binds/2 -->
<g id="edge33" class="edge">
<title>Ecto.Query.Builder.From.apply/5&#45;&gt;Ecto.Query.Builder.From.check_binds/2</title>
<path fill="none" stroke="black" d="M2173.04,-1339.01C2256.55,-1286.94 2534.37,-1113.7 2633.48,-1051.9"/>
<polygon fill="black" stroke="black" points="2635.14,-1054.36 2641.78,-1046.1 2631.44,-1048.42 2635.14,-1054.36"/>
<text text-anchor="middle" x="2428.12" y="-1192.05" font-family="Times,serif" font-size="1.00">Ecto.Query.Builder.From.apply/5 &#45;&gt; Ecto.Query.Builder.From.check_binds/2</text>
</g>
<!-- Ecto.Query.Builder.From.maybe_apply_hints/2 -->
<g id="node16" class="node">
<title>Ecto.Query.Builder.From.maybe_apply_hints/2</title>
<ellipse fill="white" stroke="white" cx="1975" cy="-1028.75" rx="115.92" ry="18"/>
<text text-anchor="middle" x="1975" y="-1024.08" font-family="Times,serif" font-size="14.00">maybe_apply_hints/2</text>
</g>
<!-- Ecto.Query.Builder.From.apply/5&#45;&gt;Ecto.Query.Builder.From.maybe_apply_hints/2 -->
<g id="edge29" class="edge">
<title>Ecto.Query.Builder.From.apply/5&#45;&gt;Ecto.Query.Builder.From.maybe_apply_hints/2</title>
<path fill="none" stroke="black" d="M2139.89,-1337.02C2111.42,-1283.96 2023.93,-1120.93 1989.31,-1056.42"/>
<polygon fill="black" stroke="black" points="1992.04,-1055.11 1984.23,-1047.95 1985.87,-1058.42 1992.04,-1055.11"/>
<text text-anchor="middle" x="2083" y="-1192.05" font-family="Times,serif" font-size="1.00">Ecto.Query.Builder.From.apply/5 &#45;&gt; Ecto.Query.Builder.From.maybe_apply_hints/2</text>
</g>
<!-- Ecto.Query.Builder.From.apply/5&#45;&gt;Ecto.Queryable.to_query/1 -->
<g id="edge32" class="edge">
<title>Ecto.Query.Builder.From.apply/5&#45;&gt;Ecto.Queryable.to_query/1</title>
<path fill="none" stroke="black" d="M2122.6,-1339.54C2114.57,-1335.63 2105.59,-1331.73 2097,-1329 1749.48,-1218.7 1560.51,-1435.22 1288,-1193 1252.97,-1161.87 1216.86,-830.62 1206.77,-731.42"/>
<polygon fill="black" stroke="black" points="1210.18,-731.36 1205.69,-721.76 1203.21,-732.06 1210.18,-731.36"/>
<text text-anchor="middle" x="1268.5" y="-1028.92" font-family="Times,serif" font-size="1.00">Ecto.Query.Builder.From.apply/5 &#45;&gt; Ecto.Queryable.to_query/1</text>
</g>
<!-- Ecto.Query.Builder.split_fragment/2 -->
<g id="node17" class="node">
<title>Ecto.Query.Builder.split_fragment/2</title>
<ellipse fill="white" stroke="white" cx="1394" cy="-1028.75" rx="93.82" ry="18"/>
<text text-anchor="middle" x="1394" y="-1024.08" font-family="Times,serif" font-size="14.00">split_fragment/2</text>
</g>
<!-- Ecto.Query.Builder.split_fragment/2&#45;&gt;Ecto.Query.Builder.split_fragment/2 -->
<g id="edge45" class="edge">
<title>Ecto.Query.Builder.split_fragment/2&#45;&gt;Ecto.Query.Builder.split_fragment/2</title>
<path fill="none" stroke="black" d="M1416.78,-1046.63C1455.42,-1068.24 1505.82,-1062.28 1505.82,-1028.75 1505.82,-997.97 1463.35,-990.42 1426.49,-1006.11"/>
<polygon fill="black" stroke="black" points="1425.22,-1003.32 1417.78,-1010.87 1428.3,-1009.61 1425.22,-1003.32"/>
<text text-anchor="middle" x="1524.95" y="-1028.92" font-family="Times,serif" font-size="1.00">Ecto.Query.Builder.split_fragment/2 &#45;&gt; Ecto.Query.Builder.split_fragment/2</text>
</g>
<!-- Ecto.Query.Builder.merge_fragments/2 -->
<g id="node18" class="node">
<title>Ecto.Query.Builder.merge_fragments/2</title>
<ellipse fill="white" stroke="white" cx="1671" cy="-1028.75" rx="109.08" ry="18"/>
<text text-anchor="middle" x="1671" y="-1024.08" font-family="Times,serif" font-size="14.00">merge_fragments/2</text>
</g>
<!-- Ecto.Query.Builder.merge_fragments/2&#45;&gt;Ecto.Query.Builder.merge_fragments/2 -->
<g id="edge44" class="edge">
<title>Ecto.Query.Builder.merge_fragments/2&#45;&gt;Ecto.Query.Builder.merge_fragments/2</title>
<path fill="none" stroke="black" d="M1696.89,-1046.63C1740.8,-1068.24 1798.08,-1062.28 1798.08,-1028.75 1798.08,-997.71 1748.99,-990.29 1706.86,-1006.51"/>
<polygon fill="black" stroke="black" points="1705.65,-1003.66 1697.89,-1010.87 1708.45,-1010.07 1705.65,-1003.66"/>
<text text-anchor="middle" x="1819.46" y="-1028.92" font-family="Times,serif" font-size="1.00">Ecto.Query.Builder.merge_fragments/2 &#45;&gt; Ecto.Query.Builder.merge_fragments/2</text>
</g>
<!-- Ecto.Query.Builder.fragment_pieces/2&#45;&gt;Ecto.Query.Builder.split_fragment/2 -->
<g id="edge43" class="edge">
<title>Ecto.Query.Builder.fragment_pieces/2&#45;&gt;Ecto.Query.Builder.split_fragment/2</title>
<path fill="none" stroke="black" d="M1566.47,-1337.02C1536.69,-1283.96 1445.18,-1120.93 1408.97,-1056.42"/>
<polygon fill="black" stroke="black" points="1411.6,-1054.96 1403.65,-1047.95 1405.5,-1058.38 1411.6,-1054.96"/>
<text text-anchor="middle" x="1504.88" y="-1192.05" font-family="Times,serif" font-size="1.00">Ecto.Query.Builder.fragment_pieces/2 &#45;&gt; Ecto.Query.Builder.split_fragment/2</text>
</g>
<!-- Ecto.Query.Builder.fragment_pieces/2&#45;&gt;Ecto.Query.Builder.merge_fragments/2 -->
<g id="edge42" class="edge">
<title>Ecto.Query.Builder.fragment_pieces/2&#45;&gt;Ecto.Query.Builder.merge_fragments/2</title>
<path fill="none" stroke="black" d="M1581.11,-1336.57C1596.74,-1283.22 1644,-1121.89 1662.98,-1057.11"/>
<polygon fill="black" stroke="black" points="1666.53,-1058.46 1665.98,-1047.88 1659.81,-1056.49 1666.53,-1058.46"/>
<text text-anchor="middle" x="1644" y="-1192.05" font-family="Times,serif" font-size="1.00">Ecto.Query.Builder.fragment_pieces/2 &#45;&gt; Ecto.Query.Builder.merge_fragments/2</text>
</g>
<!-- Ecto.Query.CompileError.exception/1 -->
<g id="node25" class="node">
<title>Ecto.Query.CompileError.exception/1</title>
<ellipse fill="white" stroke="white" cx="2669" cy="-376.25" rx="69.1" ry="18"/>
<text text-anchor="middle" x="2669" y="-371.57" font-family="Times,serif" font-size="14.00">exception/1</text>
</g>
<!-- Ecto.Query.Builder.error!/1&#45;&gt;Ecto.Query.CompileError.exception/1 -->
<g id="edge26" class="edge">
<title>Ecto.Query.Builder.error!/1&#45;&gt;Ecto.Query.CompileError.exception/1</title>
<path fill="none" stroke="black" d="M2669,-684.07C2669,-630.83 2669,-470.06 2669,-405.01"/>
<polygon fill="black" stroke="black" points="2672.5,-405.38 2669,-395.38 2665.5,-405.38 2672.5,-405.38"/>
<text text-anchor="middle" x="2687" y="-539.55" font-family="Times,serif" font-size="1.00">Ecto.Query.Builder.error!/1 &#45;&gt; Ecto.Query.CompileError.exception/1</text>
</g>
<!-- Ecto.Query.Builder.atom!/2&#45;&gt;Ecto.Query.Builder.error!/1 -->
<g id="edge25" class="edge">
<title>Ecto.Query.Builder.atom!/2&#45;&gt;Ecto.Query.Builder.error!/1</title>
<path fill="none" stroke="black" d="M2810.2,-1010.77C2785.87,-957.82 2711.21,-795.35 2681.44,-730.57"/>
<polygon fill="black" stroke="black" points="2684.26,-729.32 2676.9,-721.7 2677.9,-732.25 2684.26,-729.32"/>
<text text-anchor="middle" x="2758" y="-865.8" font-family="Times,serif" font-size="1.00">Ecto.Query.Builder.atom!/2 &#45;&gt; Ecto.Query.Builder.error!/1</text>
</g>
<!-- Ecto.Query.CompileError.__struct__/0 -->
<g id="node24" class="node">
<title>Ecto.Query.CompileError.__struct__/0</title>
<ellipse fill="white" stroke="white" cx="2670" cy="-50" rx="69.62" ry="18"/>
<text text-anchor="middle" x="2670" y="-45.33" font-family="Times,serif" font-size="14.00">__struct__/0</text>
</g>
<!-- Ecto.Query.CompileError.exception/1&#45;&gt;Ecto.Query.CompileError.__struct__/0 -->
<g id="edge41" class="edge">
<title>Ecto.Query.CompileError.exception/1&#45;&gt;Ecto.Query.CompileError.__struct__/0</title>
<path fill="none" stroke="black" d="M2669.05,-357.82C2669.22,-304.58 2669.71,-143.81 2669.91,-78.76"/>
<polygon fill="black" stroke="black" points="2673.42,-79.14 2669.95,-69.13 2666.42,-79.11 2673.42,-79.14"/>
<text text-anchor="middle" x="2690.38" y="-213.3" font-family="Times,serif" font-size="1.00">Ecto.Query.CompileError.exception/1 &#45;&gt; Ecto.Query.CompileError.__struct__/0</text>
</g>
<!-- Ecto.Query.CompileError.exception/1&#45;&gt;Ecto.Query.CompileError.exception/1 -->
<g id="edge40" class="edge">
<title>Ecto.Query.CompileError.exception/1&#45;&gt;Ecto.Query.CompileError.exception/1</title>
<path fill="none" stroke="black" d="M2686.53,-393.98C2716.65,-415.77 2756.1,-409.86 2756.1,-376.25 2756.1,-345.92 2723.98,-338.15 2695.57,-352.93"/>
<polygon fill="black" stroke="black" points="2694.19,-350.29 2687.53,-358.52 2697.87,-356.24 2694.19,-350.29"/>
<text text-anchor="middle" x="2776.72" y="-376.43" font-family="Times,serif" font-size="1.00">Ecto.Query.CompileError.exception/1 &#45;&gt; Ecto.Query.CompileError.exception/1</text>
</g>
<!-- Ecto.assoc/3 -->
<g id="node27" class="node">
<title>Ecto.assoc/3</title>
<ellipse fill="white" stroke="white" cx="1218" cy="-2986.25" rx="48.05" ry="18"/>
<text text-anchor="middle" x="1218" y="-2981.57" font-family="Times,serif" font-size="14.00">assoc/3</text>
</g>
<!-- Ecto.assoc/3&#45;&gt;Ecto.Association.association_from_schema!/2 -->
<g id="edge2" class="edge">
<title>Ecto.assoc/3&#45;&gt;Ecto.Association.association_from_schema!/2</title>
<path fill="none" stroke="black" d="M1186.43,-2972.36C1024.82,-2904.42 287.59,-2570.17 27,-2025.5 -29.98,-1906.41 101.15,-1763.23 160.61,-1706.81"/>
<polygon fill="black" stroke="black" points="162.58,-1709.82 167.49,-1700.44 157.8,-1704.71 162.58,-1709.82"/>
<text text-anchor="middle" x="270.25" y="-2333.93" font-family="Times,serif" font-size="1.00">Ecto.assoc/3 &#45;&gt; Ecto.Association.association_from_schema!/2</text>
</g>
<!-- Ecto.assoc/3&#45;&gt;Ecto.Association.filter_through_chain/3 -->
<g id="edge4" class="edge">
<title>Ecto.assoc/3&#45;&gt;Ecto.Association.filter_through_chain/3</title>
<path fill="none" stroke="black" d="M1214.18,-2967.82C1202.53,-2914.58 1167.32,-2753.81 1153.08,-2688.76"/>
<polygon fill="black" stroke="black" points="1156.31,-2688.15 1150.75,-2679.13 1149.47,-2689.64 1156.31,-2688.15"/>
<text text-anchor="middle" x="1197.75" y="-2823.3" font-family="Times,serif" font-size="1.00">Ecto.assoc/3 &#45;&gt; Ecto.Association.filter_through_chain/3</text>
</g>
<!-- Ecto.assert_struct!/2 -->
<g id="node28" class="node">
<title>Ecto.assert_struct!/2</title>
<ellipse fill="white" stroke="white" cx="1377" cy="-2660" rx="90.67" ry="18"/>
<text text-anchor="middle" x="1377" y="-2655.32" font-family="Times,serif" font-size="14.00">assert_struct!/2</text>
</g>
<!-- Ecto.assoc/3&#45;&gt;Ecto.assert_struct!/2 -->
<g id="edge3" class="edge">
<title>Ecto.assoc/3&#45;&gt;Ecto.assert_struct!/2</title>
<path fill="none" stroke="black" d="M1226.32,-2968.27C1252.29,-2915.32 1331.96,-2752.85 1363.72,-2688.07"/>
<polygon fill="black" stroke="black" points="1367.31,-2689.72 1368.57,-2679.2 1361.02,-2686.64 1367.31,-2689.72"/>
<text text-anchor="middle" x="1308.25" y="-2823.3" font-family="Times,serif" font-size="1.00">Ecto.assoc/3 &#45;&gt; Ecto.assert_struct!/2</text>
</g>
<!-- Ecto.assoc_prefix/2 -->
<g id="node29" class="node">
<title>Ecto.assoc_prefix/2</title>
<ellipse fill="white" stroke="white" cx="1567" cy="-2660" rx="81.72" ry="18"/>
<text text-anchor="middle" x="1567" y="-2655.32" font-family="Times,serif" font-size="14.00">assoc_prefix/2</text>
</g>
<!-- Ecto.assoc/3&#45;&gt;Ecto.assoc_prefix/2 -->
<g id="edge1" class="edge">
<title>Ecto.assoc/3&#45;&gt;Ecto.assoc_prefix/2</title>
<path fill="none" stroke="black" d="M1235.31,-2969.17C1292.14,-2916.37 1473.27,-2748.08 1541.06,-2685.1"/>
<polygon fill="black" stroke="black" points="1542.81,-2688.32 1547.75,-2678.95 1538.04,-2683.2 1542.81,-2688.32"/>
<text text-anchor="middle" x="1402.12" y="-2823.3" font-family="Times,serif" font-size="1.00">Ecto.assoc/3 &#45;&gt; Ecto.assoc_prefix/2</text>
</g>
</g>
</svg>
